<svg id="favicon" xmlns="http://www.w3.org/2000/svg" width="496" height="515" viewBox="0 0 496 515">
  <g id="Rectangle_1" data-name="Rectangle 1" fill="#f9f2dd" stroke="#707070" stroke-width="1">
    <rect width="496" height="515" rx="40" stroke="none"/>
    <rect x="0.5" y="0.5" width="495" height="514" rx="39.5" fill="none"/>
  </g>
  <g id="g" transform="translate(67.701 59)">
    <path id="Path_6" data-name="Path 6" d="M261.427,396.826c-58.137,0-112.794-20.639-153.9-58.113s-63.749-87.3-63.749-140.3,22.639-102.824,63.749-140.3S203.29,0,261.427,0c46.068,0,90.11,12.973,127.366,37.516,17.126,11.282,20.976,33.085,8.6,48.7s-36.292,19.122-53.419,7.84a149.443,149.443,0,0,0-82.547-24.3c-77.822,0-141.134,57.716-141.134,128.658S183.6,327.071,261.427,327.071a151.035,151.035,0,0,0,66.7-15.239V246.861H262.469c-21.13,0-38.259-15.615-38.259-34.877s17.129-34.877,38.259-34.877H366.384c21.13,0,38.259,15.615,38.259,34.877V331.04c0,11.2-5.9,21.711-15.85,28.268-37.256,24.544-81.3,37.517-127.367,37.517Z" transform="translate(-43.774 0)" fill="#a6590d"/>
  </g>
</svg>
